<svg xmlns="http://www.w3.org/2000/svg">
    <defs>
        <g id="hamburger">
            <rect width="100" height="20"></rect>
            <rect y="30" width="100" height="20"></rect>
            <rect y="60" width="100" height="20"></rect>
        </g>        
        <g id="HTML5"
            fill="none">
            <path d="M0.015625 0L7.68491 90L42.1215 100L76.546 90.0062L84.2273 0H0.015625Z" fill="#FF5722"/>
            <path d="M67.5955 29.4316H42.1215H27.2341L28.1965 40.7379H42.1215H66.6331L63.7399 74.6379L42.1215 80.9066L42.1035 80.9129L20.4972 74.6379L18.9874 56.9066H29.574L30.362 66.1066L42.1095 69.4254L42.1215 69.4191L53.8811 66.1004L55.1082 51.7816H42.1215H18.5543L15.7031 18.4004H42.1215H68.5339L67.5955 29.4316Z" fill="#FAFAFA"/>
        </g>
        <g id="CSS3" 
            fill="none">
            <path d="M0.00976562 0L7.67267 90L42.0806 100L76.4765 90.0063L84.1514 0H0.00976562Z" fill="#2196F3"/>
            <path d="M67.7674 29.4311L66.7998 40.7374L63.8789 74.6311L42.0802 80.8999L42.0622 80.9061L20.2755 74.6311L18.7549 56.9061H29.4289L30.2222 66.0999L42.0682 69.4249L42.0742 69.4186L53.9382 66.0936L55.5549 50.7749L18.2441 50.8811L17.1863 40.4061L56.4504 39.9249L57.2437 28.7124L16.1345 28.8311L15.4434 18.3999H42.0802H68.717L67.7674 29.4311Z" fill="#FAFAFA"/>
        </g>

        <g id="SASS"
            fill="none">
            <path d="M109.974 57.4487C105.547 57.475 101.713 58.5946 98.4977 60.2615C97.3105 57.7875 96.1233 55.6258 95.9257 54.0115C95.7031 52.1365 95.431 50.9904 95.7031 48.7511C95.9749 46.5112 97.2116 43.3341 97.2116 43.0737C97.1866 42.8393 96.9393 41.6935 94.392 41.6675C91.8447 41.6414 89.6432 42.1883 89.3959 42.8914C89.1485 43.5946 88.6539 45.2091 88.3323 46.8758C87.8871 49.3237 83.2373 57.9956 80.5908 62.5529C79.7252 60.782 78.9832 59.2196 78.8345 57.9693C78.6122 56.0946 78.3399 54.9485 78.6122 52.7091C78.8842 50.4693 80.1209 47.2925 80.1209 47.0321C80.0962 46.7977 79.8488 45.6518 77.3016 45.6258C74.7538 45.5998 72.5528 46.1466 72.3055 46.8498C72.0581 47.5529 71.7861 49.2196 71.2419 50.8341C70.7223 52.4487 64.539 66.9279 62.9313 70.7039C62.1151 72.631 61.3981 74.1675 60.8785 75.2091C60.3591 76.2508 60.8537 75.2873 60.8043 75.3914C60.3591 76.2768 60.1117 76.7716 60.1117 76.7716V76.7979C59.7655 77.449 59.3945 78.0737 59.2211 78.0737C59.0974 78.0737 58.8501 76.3289 59.2705 73.9334C60.1857 68.9071 62.4117 61.0688 62.3872 60.7823C62.3872 60.6521 62.8074 59.2716 60.9524 58.5688C59.1469 57.8656 58.5041 59.0375 58.3554 59.0375C58.207 59.0375 58.0834 59.4542 58.0834 59.4542C58.0834 59.4542 60.0867 50.6263 54.2497 50.6263C50.5892 50.6263 45.5436 54.819 43.0456 58.6472C41.4626 59.5586 38.0989 61.4854 34.5373 63.543C33.177 64.3242 31.7672 65.1576 30.4316 65.9128L30.1598 65.5998C23.0861 57.657 10.0022 52.0321 10.5463 41.355C10.7442 37.4748 12.0303 27.2404 35.6755 14.8446C55.0417 4.68832 70.5494 7.47477 73.2451 13.6727C77.0787 22.5269 64.9594 38.9852 44.8268 41.355C37.1595 42.2664 33.1278 39.1414 32.114 37.9696C31.0504 36.7456 30.902 36.6935 30.5063 36.9279C29.8632 37.2925 30.259 38.3862 30.5063 39.0373C31.0999 40.6779 33.5732 43.5946 37.7779 45.0529C41.4629 46.3289 50.466 47.0321 61.3486 42.605C73.5421 37.631 83.0644 23.8289 80.2696 12.2925C77.4252 0.547694 58.9248 -3.30647 41.4384 3.22998C31.0255 7.13623 19.7471 13.23 11.6346 21.2248C1.98864 30.7039 0.45518 38.9852 1.09824 42.4227C3.34921 54.6883 19.4008 62.6831 25.8315 68.5946C25.5099 68.7766 25.2131 68.9589 24.9411 69.1154C21.7258 70.7818 9.48281 77.5268 6.41589 84.662C2.95324 92.7349 6.96002 98.5425 9.63121 99.3237C17.8921 101.746 26.3509 97.3966 30.9265 90.2352C35.4772 83.0737 34.9333 73.7768 32.831 69.5321L32.7565 69.3758L35.2793 67.8133C36.912 66.7977 38.5196 65.8602 39.9292 65.0526C39.1379 67.3182 38.5688 70.0005 38.2723 73.9068C37.926 78.4904 39.7068 84.4276 42.0565 86.7714C43.0953 87.7867 44.3319 87.813 45.0987 87.813C47.8193 87.813 49.056 85.443 50.4163 82.6047C52.0982 79.1412 53.5822 75.1307 53.5822 75.1307C53.5822 75.1307 51.7272 85.9901 56.7975 85.9901C58.6525 85.9901 60.5075 83.4641 61.3484 82.162V82.188C61.3484 82.188 61.3979 82.1099 61.4968 81.9276C61.6006 81.7661 61.6995 81.6011 61.7936 81.4331V81.381C62.5356 80.0268 64.1927 76.9279 66.666 71.7977C69.8564 65.1831 72.9235 56.9018 72.9235 56.9018C72.9235 56.9018 73.2203 58.9331 74.1355 62.2664C74.6794 64.2459 75.8665 66.4071 76.7817 68.5164C76.0397 69.6102 75.5945 70.2354 75.5945 70.2354L75.6192 70.2615C75.0259 71.0948 74.3578 71.9805 73.6655 72.8656C71.1427 76.0427 68.1253 79.6628 67.7296 80.7044C67.2596 81.9281 67.3586 82.8396 68.2737 83.569C68.9415 84.0899 70.1287 84.1938 71.3901 84.0899C73.6655 83.9334 75.2485 83.3347 76.0399 82.9698C77.2766 82.5011 78.6864 81.7979 80.0467 80.7563C82.52 78.8294 84.0288 76.0951 83.8804 72.4492C83.8062 70.444 83.1878 68.4649 82.4211 66.5899C82.6437 66.2513 82.8665 65.9125 83.0889 65.5482C86.9967 59.5323 90.0142 52.918 90.0142 52.918C90.0142 52.918 90.311 54.9492 91.2261 58.2826C91.6958 59.9753 92.6359 61.8245 93.4769 63.6474C89.8163 66.7985 87.5161 70.4443 86.7247 72.8401C85.2654 77.2672 86.4031 79.2724 88.5549 79.7412C89.5193 79.9495 90.9046 79.4808 91.9431 79.012C93.2293 78.5693 94.7875 77.8138 96.2222 76.6943C98.6956 74.7672 101.07 72.0849 100.946 68.4651C100.872 66.7985 100.452 65.1578 99.8828 63.5953C102.999 62.2412 107.03 61.4599 112.15 62.111C123.157 63.4651 125.333 70.7047 124.913 73.7255C124.493 76.7466 122.192 78.413 121.425 78.9339C120.659 79.4287 120.411 79.6112 120.486 79.9755C120.584 80.5227 120.931 80.4964 121.599 80.3925C122.514 80.236 127.386 77.9185 127.584 72.3459C127.881 65.1834 121.425 57.3709 109.974 57.4487V57.4487ZM25.0895 87.5789C21.4537 91.7716 16.3339 93.3602 14.1574 92.006C11.8077 90.5737 12.7226 84.4018 17.1996 79.9487C19.9202 77.2404 23.4571 74.7404 25.782 73.2039C26.3014 72.8654 27.0929 72.3709 28.0327 71.7716C28.1811 71.6677 28.2801 71.6154 28.2801 71.6154C28.4532 71.5112 28.6511 71.381 28.8489 71.2508C30.5061 77.605 28.9231 83.1779 25.0895 87.5789V87.5789ZM51.6777 68.5425C50.4163 71.7977 47.7451 80.157 46.1375 79.6883C44.7521 79.2977 43.9115 72.9695 45.8651 66.7196C46.8545 63.5683 48.9568 59.8185 50.1935 58.3599C52.1971 56.0162 54.3734 55.2349 54.9177 56.1985C55.5608 57.4487 52.4692 66.5112 51.6777 68.5425ZM73.6161 79.5841C73.0719 79.8709 72.5773 80.0789 72.3547 79.9229C72.1815 79.8188 72.577 79.4281 72.577 79.4281C72.577 79.4281 75.3224 76.3292 76.4107 74.8969C77.029 74.0638 77.771 73.1003 78.5625 72.0063V72.3188C78.5627 76.0685 75.1495 78.5685 73.6161 79.5841ZM90.5333 75.5216C90.1376 75.2091 90.1873 74.2456 91.5227 71.2248C92.0423 70.0268 93.2293 68.0216 95.2821 66.1206C95.5295 66.9018 95.6781 67.6568 95.6531 68.3602C95.6286 73.0477 92.4628 74.7925 90.5333 75.5216Z" fill="#CF649A"/>
        </g>
        <g id="JS"
            fill="none">
            <path d="M0 0H96.242V100H0V0Z" fill="#F7DF1E"/>
            <path d="M25.3058 83.5671L32.6709 78.9358C34.0917 81.5534 35.3843 83.7682 38.4846 83.7682C41.4565 83.7682 43.3302 82.5602 43.3302 77.8618V45.9095H52.3745V77.9947C52.3745 87.728 46.8835 92.1583 38.8724 92.1583C31.6373 92.1583 27.4374 88.2649 25.3056 83.5663" fill="black"/>
            <path d="M57.2868 82.5603L64.651 78.13C66.5896 81.4195 69.1091 83.8359 73.5665 83.8359C77.314 83.8359 79.7037 81.889 79.7037 79.204C79.7037 75.9819 77.2489 74.8406 73.1142 72.9617L70.8537 71.9541C64.3284 69.0682 59.9998 65.4435 59.9998 57.7909C59.9998 50.7427 65.168 45.3724 73.2437 45.3724C78.9935 45.3724 83.1281 47.4535 86.0995 52.8908L79.0577 57.5894C77.5071 54.7032 75.8279 53.5622 73.2439 53.5622C70.5951 53.5622 68.9153 55.3075 68.9153 57.5894C68.9153 60.4087 70.5951 61.5502 74.4709 63.2955L76.7318 64.3024C84.4197 67.726 88.7483 71.2162 88.7483 79.0697C88.7483 87.5281 82.3527 92.1593 73.7605 92.1593C65.3621 92.1593 59.9353 87.9978 57.287 82.5603" fill="black"/>
        </g>

        <g id="BS"
            fill="none">
            <path d="M96.242 83.3333C96.242 92.5 89.0238 100 80.2016 100H16.0403C7.21815 100 0 92.5 0 83.3333V16.6667C0 7.5 7.21815 0 16.0403 0H80.2016C89.0238 0 96.242 7.5 96.242 16.6667V83.3333Z" fill="#563D7C"/>
            <path d="M26.1518 21.7323H53.4361C58.4683 21.7323 62.5099 22.9251 65.545 25.327C68.58 27.729 70.1054 31.3401 70.1054 36.1931C70.1054 39.1342 69.4135 41.6506 68.0296 43.7421C66.6458 45.8336 64.6643 47.4676 62.0853 48.6114V48.7748C65.545 49.5427 68.1712 51.2421 69.9482 53.8728C71.7252 56.5199 72.6216 59.8205 72.6216 63.8074C72.6216 66.095 72.2284 68.2355 71.4421 70.2127C70.6558 72.2061 69.4292 73.9218 67.7466 75.3597C66.0639 76.7976 63.9252 77.9414 61.299 78.7911C58.6728 79.6408 55.5591 80.0656 51.9421 80.0656H26.1518V21.7323ZM35.9804 46.1604H52.0208C54.3796 46.1604 56.3454 45.4741 57.9179 44.0689C59.4905 42.6636 60.2768 40.6702 60.2768 38.0558C60.2768 35.1146 59.5691 33.0395 58.1538 31.8466C56.7385 30.6538 54.6941 30.0493 52.0208 30.0493H35.9804V46.1604ZM35.9804 71.7323H53.3574C56.3454 71.7323 58.6728 70.9316 60.3083 69.314C61.9595 67.7127 62.7929 65.4251 62.7929 62.4839C62.7929 59.5917 61.9752 57.3859 60.3083 55.8172C58.6413 54.2486 56.3454 53.497 53.3574 53.497H35.9804V71.7323Z" fill="white"/>
        </g>
        <g id = "GIT"
            fill="none">
            <path fill="#F4511E" d="M42.2,22.1L25.9,5.8C25.4,5.3,24.7,5,24,5c0,0,0,0,0,0c-0.7,0-1.4,0.3-1.9,0.8l-3.5,3.5l4.1,4.1c0.4-0.2,0.8-0.3,1.3-0.3c1.7,0,3,1.3,3,3c0,0.5-0.1,0.9-0.3,1.3l4,4c0.4-0.2,0.8-0.3,1.3-0.3c1.7,0,3,1.3,3,3s-1.3,3-3,3c-1.7,0-3-1.3-3-3c0-0.5,0.1-0.9,0.3-1.3l-4-4c-0.1,0-0.2,0.1-0.3,0.1v10.4c1.2,0.4,2,1.5,2,2.8c0,1.7-1.3,3-3,3s-3-1.3-3-3c0-1.3,0.8-2.4,2-2.8V18.8c-1.2-0.4-2-1.5-2-2.8c0-0.5,0.1-0.9,0.3-1.3l-4.1-4.1L5.8,22.1C5.3,22.6,5,23.3,5,24c0,0.7,0.3,1.4,0.8,1.9l16.3,16.3c0,0,0,0,0,0c0.5,0.5,1.2,0.8,1.9,0.8s1.4-0.3,1.9-0.8l16.3-16.3c0.5-0.5,0.8-1.2,0.8-1.9C43,23.3,42.7,22.6,42.2,22.1z"></path>
        </g>
        <g id = "FIGMA"
            fill="none">
            <path d="M17.3753 100C26.9632 100 34.7447 92.5335 34.7447 83.3335V66.6668H17.3753C7.78741 66.6668 0.00592041 74.1335 0.00592041 83.3335C0.00592041 92.5335 7.78741 100 17.3753 100Z" fill="#0ACF83"/>
            <path d="M0.00592041 49.9999C0.00592041 40.7999 7.78741 33.3332 17.3753 33.3332H34.7447V66.6665H17.3753C7.78741 66.6665 0.00592041 59.1999 0.00592041 49.9999Z" fill="#A259FF"/>
            <path d="M0.00390625 16.6667C0.00390625 7.46667 7.7854 7.62939e-06 17.3733 7.62939e-06H34.7427V33.3333H17.3733C7.7854 33.3333 0.00390625 25.8667 0.00390625 16.6667Z" fill="#F24E1E"/>
            <path d="M34.7458 7.62939e-06H52.1152C61.7031 7.62939e-06 69.4846 7.46667 69.4846 16.6667C69.4846 25.8667 61.7031 33.3333 52.1152 33.3333H34.7458V7.62939e-06Z" fill="#FF7262"/>
            <path d="M69.4846 49.9999C69.4846 59.1999 61.7031 66.6665 52.1152 66.6665C42.5273 66.6665 34.7458 59.1999 34.7458 49.9999C34.7458 40.7999 42.5273 33.3332 52.1152 33.3332C61.7031 33.3332 69.4846 40.7999 69.4846 49.9999Z" fill="#1ABCFE"/>
        </g>

        <g id="email" 
            fill="none">
            <path d="M17.8607 7.36697C20.6854 7.36697 23.3471 8.61918 25.2977 10.5767V10.5825C25.2977 9.64247 25.9301 8.93137 26.8043 8.93137H27.0263C28.4057 8.93137 28.682 10.2322 28.682 10.6426L28.6878 25.2518C28.5918 26.2092 29.6764 26.7041 30.2788 26.089C32.6202 23.6805 35.4264 13.6951 28.8208 7.91387C22.6603 2.51765 14.3919 3.40912 9.99586 6.4385C5.32346 9.66675 2.33686 16.7973 5.23789 23.499C8.40602 30.8053 17.4629 32.9848 22.8534 30.8111C25.5821 29.7092 26.8401 33.393 24.0038 34.599C19.7292 36.4224 7.81633 36.2362 2.25246 26.6012C-1.50651 20.0927 -1.30764 8.64347 8.66617 2.7119C16.2893 -1.82869 26.3475 -0.57069 32.4109 5.75978C38.7472 12.3839 38.3806 24.7778 32.1947 29.5959C29.3931 31.787 25.2329 29.656 25.263 26.4636L25.2318 25.423C23.2812 27.3551 20.6854 28.4882 17.8607 28.4882C12.2725 28.4882 7.35267 23.5672 7.35267 17.9848C7.35267 12.3423 12.2725 7.36928 17.8607 7.36928V7.36697ZM24.8895 17.5813C24.6779 13.4916 21.6428 11.0288 17.9751 11.0288H17.8364C13.6091 11.0288 11.2608 14.3588 11.2608 18.134C11.2608 22.367 14.0971 25.0402 17.819 25.0402C21.9735 25.0402 24.701 22.0005 24.8999 18.4045L24.8895 17.5813Z" fill="black"/>
        </g>
        <g id="github"
            fill="none">
            <path d="M17.4844 1.46274e-06C7.82422 -0.00390479 0 7.81641 0 17.4688C0 25.1016 4.89453 31.5899 11.7109 33.9727C12.6289 34.2032 12.4883 33.5508 12.4883 33.1055V30.0782C7.1875 30.6992 6.97266 27.1914 6.61719 26.6055C5.89844 25.3789 4.19922 25.0664 4.70703 24.4805C5.91406 23.8594 7.14453 24.6367 8.57031 26.7422C9.60156 28.2696 11.6133 28.0117 12.6328 27.7578C12.8555 26.8399 13.332 26.0196 13.9883 25.3828C8.49609 24.3985 6.20703 21.0469 6.20703 17.0625C6.20703 15.1289 6.84375 13.3516 8.09375 11.918C7.29688 9.5547 8.16797 7.53126 8.28516 7.23048C10.5547 7.02735 12.9141 8.85548 13.0977 9.00001C14.3867 8.65235 15.8594 8.46876 17.5078 8.46876C19.1641 8.46876 20.6406 8.66016 21.9414 9.01173C22.3828 8.67579 24.5703 7.10548 26.6797 7.29688C26.793 7.59766 27.6445 9.57423 26.8945 11.9063C28.1602 13.3438 28.8047 15.1367 28.8047 17.0742C28.8047 21.0664 26.5 24.4219 20.9922 25.3906C21.4639 25.8546 21.8385 26.4079 22.0941 27.0182C22.3496 27.6285 22.481 28.2837 22.4805 28.9453V33.3399C22.5117 33.6914 22.4805 34.0391 23.0664 34.0391C29.9844 31.7071 34.9648 25.1719 34.9648 17.4727C34.9648 7.81641 27.1367 1.46274e-06 17.4844 1.46274e-06V1.46274e-06Z" fill="black"/>
        </g>
        <g id="in"
            fill="none">
            <path fill="black" d="M19 0h-14c-2.761 0-5 2.239-5 5v14c0 2.761 2.239 5 5 5h14c2.762 0 5-2.239 5-5v-14c0-2.761-2.238-5-5-5zm-11 19h-3v-11h3v11zm-1.5-12.268c-.966 0-1.75-.79-1.75-1.764s.784-1.764 1.75-1.764 1.75.79 1.75 1.764-.783 1.764-1.75 1.764zm13.5 12.268h-3v-5.604c0-3.368-4-3.113-4 0v5.604h-3v-11h3v1.765c1.396-2.586 7-2.777 7 2.476v6.759z"/>        
        </g>
        
        <g id='nodejs'
            fill="none">
            <path d="M42.7386 99.8144C41.4113 99.8144 40.1725 99.4476 39.0222 98.8058L27.2536 91.5615C25.4839 90.5528 26.3688 90.186 26.8997 90.0026C29.2888 89.1774 29.7312 88.994 32.2088 87.5268C32.4743 87.3434 32.8282 87.4351 33.0937 87.6185L42.1192 93.2121C42.4732 93.3955 42.9156 93.3955 43.1811 93.2121L78.4869 72.0296C78.8408 71.8462 79.0178 71.4794 79.0178 71.0209V28.7477C79.0178 28.2892 78.8408 27.9224 78.4869 27.739L43.1811 6.64818C42.8271 6.46479 42.3847 6.46479 42.1192 6.64818L6.8134 27.739C6.45946 27.9224 6.28249 28.3809 6.28249 28.7477V71.0209C6.28249 71.3877 6.45946 71.8462 6.8134 72.0296L16.4584 77.8067C21.679 80.5576 24.953 77.3482 24.953 74.1387V32.4156C24.953 31.8654 25.3954 31.3152 26.0148 31.3152H30.5276C31.0585 31.3152 31.5894 31.7737 31.5894 32.4156V74.1387C31.5894 81.3829 27.7845 85.6011 21.1481 85.6011C19.1129 85.6011 17.5202 85.6011 13.0074 83.3086L3.7164 77.8067C1.41577 76.4312 0 73.8636 0 71.1126V28.8394C0 26.0884 1.41577 23.5208 3.7164 22.1453L39.0222 0.96284C41.2344 -0.320947 44.2429 -0.320947 46.455 0.96284L81.7608 22.1453C84.0615 23.5208 85.4772 26.0884 85.4772 28.8394V71.1126C85.4772 73.8636 84.0615 76.4312 81.7608 77.8067L46.455 98.9892C45.3047 99.5393 43.9774 99.8144 42.7386 99.8144ZM53.6224 70.7458C38.1374 70.7458 34.9519 63.4099 34.9519 57.1744C34.9519 56.6242 35.3943 56.074 36.0137 56.074H40.615C41.1459 56.074 41.5883 56.4408 41.5883 56.991C42.2962 61.851 44.3314 64.2352 53.7109 64.2352C61.1437 64.2352 64.3291 62.4929 64.3291 58.3665C64.3291 55.9823 63.4443 54.24 51.8527 53.0479C42.2077 52.0392 36.1907 49.8384 36.1907 41.8606C36.1907 34.433 42.2077 30.0314 52.2951 30.0314C63.6213 30.0314 69.1959 34.0662 69.9038 42.8693C69.9038 43.1444 69.8153 43.4195 69.6383 43.6946C69.4613 43.878 69.1959 44.0614 68.9304 44.0614H64.3291C63.8867 44.0614 63.4443 43.6946 63.3558 43.2361C62.294 38.1927 59.5509 36.5421 52.2951 36.5421C44.1544 36.5421 43.1811 39.4765 43.1811 41.6772C43.1811 44.3365 44.3314 45.1618 55.3036 46.629C66.1873 48.0962 71.3195 50.2052 71.3195 58.0914C71.231 66.1609 64.8601 70.7458 53.6224 70.7458Z" fill="#539E43"/>
        </g>

        <g id='mysql'
            fill="none">
            <path d="M94.8556 77.343C89.2524 77.2048 84.9099 77.7594 81.2677 79.2833C80.2171 79.6989 78.536 79.6993 78.3958 81.0155C78.9565 81.5701 79.0264 82.4707 79.5167 83.2327C80.3577 84.618 81.828 86.4892 83.1589 87.4594C84.6296 88.5678 86.1006 89.6762 87.6412 90.6464C90.3729 92.3094 93.4548 93.2792 96.1162 94.9422C97.6576 95.9115 99.1977 97.1595 100.739 98.1987C101.509 98.7525 101.999 99.6536 102.98 100V99.7922C102.49 99.1685 102.35 98.2679 101.86 97.575C101.16 96.8821 100.459 96.2584 99.7584 95.5655C97.7271 92.8636 95.2058 90.5078 92.4741 88.5678C90.2332 87.0434 85.33 84.9649 84.4195 82.4012C84.4195 82.4012 84.3492 82.3321 84.2794 82.263C85.8203 82.1243 87.6412 81.5701 89.1123 81.1541C91.4938 80.5304 93.6649 80.669 96.1162 80.0457C97.2367 79.7684 98.3576 79.422 99.4781 79.0756V78.4522C98.2179 77.2047 97.307 75.5421 95.9761 74.3642C92.4042 71.315 88.4817 68.3362 84.4195 65.8421C82.248 64.4564 79.4464 63.5553 77.1353 62.3778C76.2951 61.9614 74.8939 61.754 74.404 61.0612C73.1429 59.5368 72.4425 57.5278 71.5321 55.726C69.5016 51.9149 67.5397 47.689 65.7887 43.6705C64.5286 40.9682 63.7579 38.2659 62.2169 35.7718C55.0029 23.9932 47.1584 16.8568 35.1115 9.85863C32.5199 8.4038 29.4385 7.78005 26.1465 7.01808C24.396 6.94853 22.6445 6.81031 20.8935 6.74076C19.7731 6.25567 18.6522 4.9395 17.6714 4.31575C13.68 1.82119 3.3836 -3.5826 0.441855 3.55378C-1.44931 8.05738 3.24344 12.4914 4.85425 14.7782C6.04545 16.3717 7.58597 18.1729 8.42653 19.9747C8.9169 21.1517 9.05662 22.3997 9.54699 23.6467C10.6679 26.6946 11.718 30.0902 13.1891 32.9312C13.9598 34.3861 14.8 35.9105 15.7807 37.2266C16.3409 37.9886 17.3212 38.3354 17.5317 39.5825C16.5514 40.9682 16.4811 43.0468 15.9204 44.779C13.3992 52.6082 14.3799 62.3083 17.9517 68.0589C19.0722 69.7906 21.734 73.6022 25.3059 72.1469C28.4577 70.8999 27.7573 66.9505 28.6677 63.4862C28.8782 62.6542 28.738 62.1005 29.1581 61.5463C29.1585 61.6154 29.1581 61.6849 29.1581 61.6849C30.1388 63.6248 31.1191 65.4957 32.0295 67.4355C34.201 70.8303 37.9829 74.3641 41.1347 76.7201C42.8163 77.9667 44.1468 80.1148 46.2479 80.8772V80.669H46.1078C45.6873 80.0453 45.0572 79.7684 44.4969 79.2833C43.2363 78.0362 41.8351 76.5119 40.8548 75.1261C37.9135 71.2458 35.3215 66.9505 33.0103 62.516C31.8898 60.3683 30.9091 58.0124 29.9987 55.8647C29.5782 55.0328 29.5782 53.7861 28.8778 53.3706C27.8272 54.8945 26.2867 56.2112 25.5159 58.082C24.1859 61.0612 24.0453 64.7333 23.5549 68.544C23.275 68.6135 23.4148 68.544 23.2746 68.6826C21.0337 68.128 20.263 65.8421 19.4224 63.9017C17.3212 58.9826 16.971 51.0838 18.7923 45.4027C19.2827 43.9474 21.3839 39.3747 20.5433 37.989C20.1232 36.6724 18.722 35.9104 17.9517 34.8711C17.0413 33.5545 16.0606 31.8919 15.4305 30.4367C13.7494 26.5568 12.9088 22.261 11.088 18.3807C10.2474 16.579 8.77673 14.7087 7.58597 13.046C6.25549 11.1752 4.78438 9.85863 3.73378 7.64138C3.38402 6.87941 2.89321 5.63235 3.45344 4.80083C3.59361 4.24663 3.8735 4.03886 4.43417 3.9002C5.3446 3.13779 7.93615 4.10797 8.84656 4.52351C11.4381 5.56236 13.6092 6.53298 15.7807 7.98781C16.761 8.68067 17.8115 9.99728 19.0722 10.3437H20.5433C22.7846 10.8284 25.3059 10.4824 27.4071 11.1057C31.1195 12.2832 34.4809 14.0158 37.493 15.8866C46.6684 21.6372 54.2322 29.8133 59.3454 39.5825C60.186 41.1756 60.5358 42.6313 61.3065 44.2939C62.7776 47.6891 64.5984 51.1534 66.0691 54.479C67.5397 57.7351 68.9405 61.0612 71.0417 63.7635C72.0927 65.2179 76.2947 65.9803 78.1858 66.7427C79.5866 67.3661 81.7581 67.9207 83.0187 68.6827C85.3998 70.137 87.7813 71.8005 90.0227 73.394C91.1436 74.2251 94.6451 75.9577 94.8556 77.343L94.8556 77.343Z" fill="#00546B"/>
        </g>

        <g id="php"> 
            <g id="Layer_2"><g><path d="M103.462,207.061c15.821,0,26.365,2.92,31.637,8.761c5.267,5.841,6.522,15.867,3.766,30.074    c-2.879,14.795-8.423,25.355-16.641,31.682c-8.218,6.328-20.724,9.488-37.513,9.488h-25.33l15.549-80.005H103.462z M2,368.057    h41.643l9.877-50.823h35.669c15.739,0,28.686-1.65,38.85-4.96c10.165-3.305,19.402-8.848,27.717-16.63    c6.978-6.415,12.624-13.49,16.948-21.227c4.319-7.731,7.388-16.267,9.202-25.601c4.406-22.66,1.081-40.31-9.965-52.955    s-28.619-18.967-52.709-18.967H39.154L2,368.057z" fill="#000003"/><path d="M212.49,126.071h41.314l-9.878,50.823h36.806c23.157,0,39.132,4.042,47.924,12.117    c8.791,8.08,11.425,21.17,7.91,39.266l-17.286,88.957H277.31l16.436-84.582c1.87-9.622,1.184-16.185-2.064-19.684    c-3.248-3.5-10.159-5.251-20.729-5.251h-33.02L216.65,317.233h-41.315L212.49,126.071z" fill="#000003"/><path d="M428.49,207.061c15.821,0,26.365,2.92,31.637,8.761c5.269,5.841,6.523,15.867,3.766,30.074    c-2.879,14.795-8.421,25.355-16.641,31.682c-8.218,6.328-20.724,9.488-37.513,9.488H384.41l15.549-80.005H428.49z     M327.029,368.057h41.643l9.876-50.823h35.669c15.739,0,28.686-1.65,38.851-4.96c10.164-3.305,19.401-8.848,27.717-16.63    c6.979-6.415,12.624-13.49,16.948-21.227c4.318-7.731,7.388-16.267,9.201-25.601c4.406-22.66,1.082-40.31-9.965-52.955    c-11.046-12.645-28.619-18.967-52.709-18.967h-80.076L327.029,368.057z" fill="#000003"/></g></g>
        </g> 

        <g id="letter"
            width="30" 
            height="28" 
            viewBox="0 0 30 28" 
            fill="none">
            <path d="M27.4805 0H2.51953C1.81641 0 1.2207 0.354776 0.732422 1.06433C0.244141 1.77388 0 2.59259 0 3.52047V24.4795C0 25.4074 0.244141 26.2261 0.732422 26.9357C1.2207 27.6452 1.81641 28 2.51953 28H27.4805C28.1836 28 28.7793 27.6452 29.2676 26.9357C29.7559 26.2261 30 25.4074 30 24.4795V3.52047C30 2.59259 29.7559 1.77388 29.2676 1.06433C28.7793 0.354776 28.1836 0 27.4805 0ZM25.1367 3.52047L15 11.8713L4.86328 3.52047H25.1367ZM2.51953 24.4795V5.64912L14.3555 15.5556C14.4336 15.6647 14.6484 15.7193 15 15.7193C15.3516 15.7193 15.5664 15.6647 15.6445 15.5556L27.4805 5.64912V24.4795H2.51953Z" fill="white"/>
        </g>

        <g id = "instagramm"
            width="30" 
            height="30" 
            viewBox="0 0 30 30" 
            fill="none">
            <path d="M15 0C10.9223 0 10.4141 0.01969 8.81829 0.0871984C7.2159 0.165958 6.13202 0.414427 5.17565 0.785723C4.17471 1.1636 3.26822 1.75523 2.51938 2.51938C1.7531 3.26647 1.16114 4.17346 0.785723 5.17565C0.414427 6.13202 0.165958 7.2159 0.0871984 8.81829C0.0150019 10.4151 0 10.9223 0 15C0 19.0777 0.01969 19.5859 0.0871984 21.1817C0.165958 22.7794 0.414427 23.868 0.785723 24.8244C1.1636 25.8253 1.75523 26.7318 2.51938 27.4806C3.26647 28.2469 4.17346 28.8389 5.17565 29.2143C6.13202 29.5809 7.22059 29.834 8.81829 29.9128C10.4151 29.985 10.9223 30 15 30C19.0777 30 19.5859 29.9803 21.1817 29.9128C22.7794 29.834 23.868 29.5799 24.8244 29.2143C25.8253 28.8364 26.7318 28.2448 27.4806 27.4806C28.2479 26.7343 28.84 25.8271 29.2143 24.8244C29.5809 23.868 29.834 22.7794 29.9128 21.1817C29.985 19.5849 30 19.0777 30 15C30 10.9223 29.9803 10.4141 29.9128 8.81829C29.834 7.22059 29.5799 6.12639 29.2143 5.17565C28.8364 4.17471 28.2448 3.26822 27.4806 2.51938C26.7343 1.75212 25.8271 1.16 24.8244 0.785723C23.868 0.414427 22.7794 0.165958 21.1817 0.0871984C19.5849 0.0150019 19.0777 0 15 0ZM15 2.70034C19.0046 2.70034 19.4827 2.72003 21.0654 2.78754C22.5253 2.85598 23.3204 3.09976 23.8483 3.30604C24.5009 3.54693 25.0916 3.93035 25.5773 4.42837C26.0744 4.91201 26.4564 5.50133 26.6949 6.15264C26.9012 6.68052 27.145 7.47562 27.2134 8.93549C27.2809 10.5182 27.3006 10.9973 27.3006 15.0009C27.3006 19.0046 27.2809 19.4837 27.2078 21.0664C27.129 22.5263 26.8852 23.3214 26.6799 23.8492C26.3958 24.5534 26.0789 25.0456 25.5557 25.5782C25.0684 26.0731 24.4781 26.4547 23.8267 26.6958C23.3054 26.9021 22.4991 27.1459 21.0336 27.2143C19.4424 27.2818 18.9736 27.3015 14.9587 27.3015C10.9439 27.3015 10.476 27.2818 8.88299 27.2087C7.42312 27.13 6.6177 26.8862 6.08982 26.6808C5.37724 26.3967 4.88874 26.0798 4.36555 25.5566C3.83767 25.0288 3.502 24.5262 3.24322 23.8277C3.03319 23.3064 2.79316 22.5 2.71534 21.0345C2.6619 19.4621 2.63658 18.9746 2.63658 14.9784C2.63658 10.9842 2.6619 10.4957 2.71534 8.90361C2.79316 7.43812 3.03319 6.63364 3.24322 6.11045C3.502 5.39692 3.83861 4.90936 4.36555 4.38148C4.8878 3.85923 5.37724 3.52169 6.08982 3.25728C6.6177 3.05194 7.40343 2.80816 8.86892 2.73503C10.4601 2.67783 10.9289 2.65721 14.9381 2.65721L15 2.70034ZM15 7.30123C13.9886 7.30086 12.9871 7.49979 12.0527 7.88665C11.1182 8.27351 10.2691 8.84072 9.554 9.55587C8.83885 10.271 8.27164 11.1201 7.88477 12.0545C7.49791 12.989 7.29898 13.9905 7.29935 15.0019C7.29898 16.0132 7.49791 17.0148 7.88477 17.9492C8.27164 18.8837 8.83885 19.7327 9.554 20.4479C10.2691 21.163 11.1182 21.7302 12.0527 22.1171C12.9871 22.504 13.9886 22.7029 15 22.7025C16.0114 22.7029 17.0129 22.504 17.9473 22.1171C18.8818 21.7302 19.7309 21.163 20.446 20.4479C21.1612 19.7327 21.7284 18.8837 22.1152 17.9492C22.5021 17.0148 22.701 16.0132 22.7006 15.0019C22.701 13.9905 22.5021 12.989 22.1152 12.0545C21.7284 11.1201 21.1612 10.271 20.446 9.55587C19.7309 8.84072 18.8818 8.27351 17.9473 7.88665C17.0129 7.49979 16.0114 7.30086 15 7.30123ZM15 20.0022C12.2359 20.0022 9.99969 17.766 9.99969 15.0019C9.99969 12.2378 12.2359 10.0016 15 10.0016C17.7641 10.0016 20.0003 12.2378 20.0003 15.0019C20.0003 17.766 17.7641 20.0022 15 20.0022ZM24.8112 6.99369C24.8107 7.47156 24.6205 7.92968 24.2825 8.26742C23.9444 8.60514 23.4861 8.79485 23.0082 8.79485C22.7719 8.79485 22.5379 8.74831 22.3196 8.65789C22.1013 8.56746 21.903 8.43493 21.7359 8.26785C21.5688 8.10077 21.4363 7.90242 21.3459 7.68412C21.2554 7.46582 21.2089 7.23185 21.2089 6.99556C21.2089 6.75928 21.2554 6.5253 21.3459 6.307C21.4363 6.08871 21.5688 5.89035 21.7359 5.72327C21.903 5.55619 22.1013 5.42366 22.3196 5.33324C22.5379 5.24281 22.7719 5.19627 23.0082 5.19627C23.9993 5.19627 24.8112 6.00263 24.8112 6.99369Z" fill="white" fill-opacity="0.9"/>
        </g>

        <g id = "arrow_up"
            width="15" 
            height="15" 
            viewBox="0 0 15 15" 
            fill="none">
            <path d="M3.12497 5.3125V8.125L7.49997 5L11.875 8.125V5.3125L7.49997 2.1875L3.12497 5.3125Z" fill="white"/>
            <path d="M3.12497 9.6875V12.5L7.49997 9.375L11.875 12.5V9.6875L7.49997 6.5625L3.12497 9.6875Z" fill="white"/>
        </g>

        <g id = "linkedin"
            width="30" 
            height="31" 
            viewBox="0 0 30 31"
            fill="none">
            <path d="M27.5887 0.259766H2.41125C1.08 0.259766 0 1.33977 0 2.67102V27.8485C0 29.1798 1.08 30.2598 2.41125 30.2598H27.5887C28.92 30.2598 30 29.1798 30 27.8485V2.67102C30 1.33977 28.92 0.259766 27.5887 0.259766ZM27.5887 27.8598C10.7963 27.856 2.4 27.8523 2.4 27.8485C2.40375 11.056 2.4075 2.65977 2.41125 2.65977C19.2037 2.66352 27.6 2.66727 27.6 2.67102C27.5962 19.4635 27.5925 27.8598 27.5887 27.8598ZM4.4475 11.506H8.89875V25.8235H4.4475V11.506ZM6.675 9.54852C8.09625 9.54852 9.255 8.39352 9.255 6.96852C9.255 6.6297 9.18827 6.29421 9.05861 5.98119C8.92895 5.66817 8.73891 5.38376 8.49934 5.14418C8.25976 4.90461 7.97534 4.71456 7.66232 4.58491C7.3493 4.45525 7.01381 4.38852 6.675 4.38852C6.33619 4.38852 6.0007 4.45525 5.68768 4.58491C5.37466 4.71456 5.09024 4.90461 4.85066 5.14418C4.61109 5.38376 4.42105 5.66817 4.29139 5.98119C4.16173 6.29421 4.095 6.6297 4.095 6.96852C4.09125 8.39352 5.24625 9.54852 6.675 9.54852ZM16.1362 18.7398C16.1362 16.8723 16.4925 15.0648 18.8063 15.0648C21.0863 15.0648 21.12 17.1985 21.12 18.8598V25.8235H25.5675V17.971C25.5675 14.116 24.735 11.1498 20.2313 11.1498C18.0675 11.1498 16.6163 12.3385 16.02 13.4635H15.96V11.506H11.6888V25.8235H16.1362V18.7398Z" fill="white" fill-opacity="0.9"/>
        </g>

        <g id = "facebook" 
            width="30" 
            height="30" 
            viewBox="0 0 30 30" 
            fill="none">
            <path d="M28.8 0H1.2C0.53625 0 0 0.53625 0 1.2V28.8C0 29.4638 0.53625 30 1.2 30H28.8C29.4638 30 30 29.4638 30 28.8V1.2C30 0.53625 29.4638 0 28.8 0ZM27.6 27.6H20.6963V18.3825H24.5963L25.1813 13.8563H20.6963V10.965C20.6963 9.6525 21.06 8.76 22.9388 8.76H25.335V4.71C24.9187 4.65375 23.4975 4.53 21.84 4.53C18.3825 4.53 16.0162 6.64125 16.0162 10.515V13.8525H12.1088V18.3787H16.02V27.6H2.4V2.4H27.6V27.6Z" fill="white" fill-opacity="0.9"/>
        </g>

        <g id = "blockquotes"
            width="24" 
            height="24" 
            viewBox="0 0 24 24"
            fill="none">
            <path d="M9.983 3v7.391c0 5.704-3.731 9.57-8.983 10.609l-.995-2.151c2.432-.917 3.995-3.638 3.995-5.849h-4v-10h9.983zm14.017 0v7.391c0 5.704-3.748 9.571-9 10.609l-.996-2.151c2.433-.917 3.996-3.638 3.996-5.849h-3.983v-10h9.983z" fill = 'white'/>
        </g>
    </defs>
</svg>

